<?xml version="1.0" standalone="no"?>
<!DOCTYPE svg PUBLIC "-//W3C//DTD SVG 20010904//EN"
 "http://www.w3.org/TR/2001/REC-SVG-20010904/DTD/svg10.dtd">
<svg version="1.0" xmlns="http://www.w3.org/2000/svg"
 width="570.000000pt" height="570.000000pt" viewBox="0 0 570.000000 570.000000"
 preserveAspectRatio="xMidYMid meet">

<g transform="translate(0.000000,570.000000) scale(0.100000,-0.100000)"
fill="#000000" stroke="none">
<path d="M1432 5611 c-81 -32 -149 -83 -182 -135 -15 -26 -22 -58 -26 -123 -5
-67 -11 -95 -27 -117 -20 -29 -20 -31 -4 -95 10 -36 17 -71 17 -77 0 -6 -26
-15 -57 -21 -191 -36 -284 -110 -377 -298 -71 -145 -71 -143 -72 -700 0 -408
2 -506 13 -532 8 -17 44 -60 80 -94 l66 -63 -23 -113 c-27 -132 -24 -205 14
-354 30 -121 71 -201 144 -286 65 -75 194 -188 287 -250 l61 -41 38 -195 c35
-175 38 -204 31 -279 -4 -46 -8 -108 -9 -140 0 -31 -3 -58 -6 -61 -11 -11
-460 -266 -545 -310 -201 -104 -407 -187 -462 -187 -15 0 -62 9 -103 20 -59
16 -93 19 -160 14 -103 -8 -130 -22 -130 -68 0 -76 41 -270 66 -315 24 -43 26
-54 24 -156 -5 -218 3 -283 50 -409 23 -61 47 -76 119 -76 37 0 54 6 75 25 31
29 30 21 31 170 0 135 7 153 98 284 56 80 107 114 216 147 47 15 102 34 121
44 19 10 144 58 277 108 133 50 277 107 320 127 43 20 145 63 228 96 163 66
255 111 280 139 9 10 27 60 40 111 13 52 34 128 47 169 l24 75 39 -105 c57
-155 65 -170 319 -553 199 -300 236 -363 255 -426 21 -70 30 -83 89 -128 l23
-18 -22 -60 c-26 -74 -38 -237 -19 -260 15 -18 140 -20 255 -5 56 7 92 5 180
-11 167 -30 274 -34 385 -15 213 37 249 58 253 144 2 40 -2 55 -21 74 -32 34
-114 57 -202 56 -108 -1 -141 16 -230 118 -41 47 -96 101 -121 120 -33 24 -51
47 -64 81 -10 27 -75 152 -145 278 -70 127 -145 264 -165 305 -21 41 -80 153
-132 248 -76 140 -110 217 -177 405 -46 128 -93 252 -106 277 -12 25 -74 110
-138 190 -63 79 -125 160 -138 180 -30 46 -89 278 -98 385 -1 17 -7 41 -13 55
-5 14 -13 52 -17 85 -3 33 -15 71 -25 86 -12 15 -17 35 -14 50 3 14 -2 43 -11
64 -23 54 -21 62 28 116 28 31 55 76 71 119 15 39 32 70 37 70 6 0 43 -34 83
-75 46 -49 84 -79 106 -85 19 -6 97 -16 174 -22 132 -11 147 -10 260 11 66 13
152 32 191 42 53 14 110 19 222 20 90 0 152 5 154 10 2 6 47 13 101 16 89 5
98 8 103 28 3 12 4 25 3 31 -1 5 -1 12 0 16 2 15 541 -179 710 -257 431 -197
1184 -485 1267 -485 24 0 40 9 64 36 17 20 36 47 41 61 14 36 -13 90 -53 108
-18 8 -224 77 -458 154 -304 101 -498 158 -680 202 -251 61 -470 126 -725 215
-172 59 -164 53 -138 106 30 58 18 72 -57 63 -45 -5 -66 -2 -110 16 -30 12
-68 25 -85 28 -23 5 -36 19 -59 60 -23 42 -37 56 -73 72 -43 18 -161 97 -231
154 -29 25 -45 28 -104 25 -19 -1 -206 89 -403 195 -66 35 -194 94 -285 131
-207 84 -287 124 -324 162 l-28 31 38 10 c60 17 68 25 66 67 -2 27 2 40 18 51
11 8 20 25 20 38 0 13 5 27 10 30 6 3 10 22 10 41 0 27 4 34 19 34 21 0 37 17
42 45 4 16 11 19 56 16 45 -2 56 1 77 22 57 57 47 108 -34 171 l-60 47 0 82
c0 58 -6 94 -19 122 -50 112 -271 226 -436 225 -42 -1 -82 -9 -133 -29z m1283
-1686 c65 -19 101 -50 130 -112 30 -63 78 -104 137 -118 34 -7 53 -17 53 -26
0 -11 -21 -14 -115 -12 -94 2 -140 9 -250 36 -74 19 -147 40 -163 46 l-28 11
21 39 c11 22 20 46 20 53 0 8 -18 37 -40 67 -60 80 -57 83 68 56 59 -13 134
-31 167 -40z"/>
<path d="M5543 3646 c-57 -26 -83 -123 -47 -174 66 -95 204 -46 204 73 0 26
-8 44 -32 70 -38 41 -80 51 -125 31z"/>
</g>
</svg>
