<?xml version="1.0" standalone="no"?>
<!DOCTYPE svg PUBLIC "-//W3C//DTD SVG 20010904//EN"
 "http://www.w3.org/TR/2001/REC-SVG-20010904/DTD/svg10.dtd">
<svg version="1.0" xmlns="http://www.w3.org/2000/svg"
 width="260.000000pt" height="500.000000pt" viewBox="0 0 260.000000 500.000000"
 preserveAspectRatio="xMidYMid meet">

<g transform="translate(0.000000,500.000000) scale(0.100000,-0.100000)"
fill="#000000" stroke="none">
<path d="M1908 4988 c-50 -13 -122 -78 -142 -129 -11 -28 -16 -67 -15 -118 0
-42 -2 -84 -6 -94 -4 -9 -4 -42 0 -73 5 -44 13 -62 40 -88 32 -32 75 -139 75
-186 0 -10 8 -45 18 -78 l19 -59 -34 -12 c-18 -7 -46 -23 -62 -37 -17 -14 -52
-31 -80 -40 -31 -9 -59 -26 -75 -45 -21 -24 -26 -27 -26 -12 1 53 22 150 45
209 29 73 32 114 18 254 -15 145 -36 175 -150 209 -86 25 -100 26 -144 4 -19
-10 -59 -22 -89 -28 -51 -11 -59 -17 -113 -80 -63 -75 -87 -137 -107 -270 -17
-115 -19 -121 -48 -135 -15 -6 -56 -16 -92 -21 -80 -12 -95 -24 -37 -32 59 -8
144 2 158 19 9 11 23 2 73 -51 39 -41 68 -64 77 -61 24 9 35 -6 57 -79 14 -47
20 -93 19 -140 -2 -77 17 -123 54 -132 18 -5 96 -120 87 -128 -2 -3 -50 14
-107 35 -143 56 -179 63 -259 49 -54 -10 -73 -18 -99 -44 -18 -18 -33 -40 -33
-48 0 -8 -15 -30 -33 -49 -32 -31 -34 -38 -41 -123 -3 -50 -20 -140 -36 -200
-17 -61 -48 -183 -69 -273 -67 -277 -106 -358 -192 -402 -81 -42 -201 -35
-375 21 -119 38 -143 36 -167 -13 -20 -41 -15 -101 10 -121 8 -7 24 -22 35
-35 12 -12 28 -22 35 -22 7 0 32 -17 56 -38 26 -24 61 -44 92 -52 88 -23 163
-72 233 -152 28 -32 161 -108 189 -108 11 0 80 113 127 207 28 56 36 85 36
126 0 29 4 57 9 63 5 5 26 59 46 119 20 61 42 117 50 125 19 22 179 280 205
329 11 23 24 66 27 94 9 85 15 86 73 6 30 -39 129 -151 221 -247 102 -107 169
-185 172 -201 10 -51 -20 -190 -137 -626 -20 -77 -25 -123 -31 -320 -8 -254
-8 -253 55 -350 29 -45 51 -104 88 -230 28 -93 66 -214 86 -268 59 -161 83
-346 52 -406 -45 -86 -196 -173 -336 -191 -112 -15 -134 -26 -138 -69 -2 -18
2 -47 9 -63 11 -27 16 -30 46 -25 26 5 39 1 59 -19 22 -19 33 -23 64 -18 21 3
47 1 58 -5 16 -8 44 -7 114 5 86 15 101 15 206 -1 127 -20 209 -16 227 9 22
29 36 186 24 249 -7 31 -15 57 -20 57 -5 0 -16 24 -25 52 -13 42 -18 116 -24
358 -8 316 -20 416 -61 524 -10 28 -19 62 -19 76 0 14 -11 43 -25 65 -13 22
-25 55 -25 73 0 43 40 163 85 251 19 38 53 122 75 187 43 125 85 202 125 228
13 8 26 24 30 35 3 10 46 49 95 86 99 75 158 148 191 233 17 46 22 80 23 172
l1 115 27 -3 c72 -7 87 45 41 136 l-27 53 17 87 c23 119 24 504 2 689 -8 73
-13 143 -10 156 8 31 -17 137 -50 212 -18 39 -46 78 -84 115 -48 46 -59 62
-65 100 -11 69 -31 93 -72 88 l-34 -4 0 56 c0 44 4 58 20 68 28 17 29 128 1
164 -11 13 -25 53 -31 88 -22 122 -60 165 -175 195 -66 17 -102 18 -157 3z"/>
</g>
</svg>
