<?xml version="1.0" encoding="UTF-8"?>
<svg width="200px" height="200px" viewBox="0 0 200 200" version="1.1" xmlns="http://www.w3.org/2000/svg" xmlns:xlink="http://www.w3.org/1999/xlink">
    <title>greensboro_BGL</title>
    <g id="greensboro_BGL" stroke="none" stroke-width="1" fill="none" fill-rule="evenodd">
        <g id="greensboro" transform="translate(7.000000, 0.000000)">
            <path d="M87.7733752,72.853527 L87.7729335,72.8522018 C84.3075673,69.4972679 79.0748422,67.7957267 72.2196455,67.7957267 L0,67.7957267 C0,67.7957267 13.7395476,76.0300023 16.9628462,80.2533759 C19.5001391,83.5778305 20.308062,87.1359599 19.0566429,91.8059218 L15.8532222,103.848787 L15.8541057,103.848787 L3.93536617,148.32695 C2.56423848,153.443059 3.85762182,158.295013 7.58625869,161.998913 C11.0476493,165.422757 16.1770098,167.086309 23.2694151,167.086309 L33.5312281,167.086309 C36.5084834,167.086309 39.4724869,166.616751 42.3437272,165.689561 C42.8751275,165.518171 43.3959264,165.337062 43.9052402,165.14756 L44.6747326,167.086309 L69.975219,167.086309 L85.342539,109.733946 L85.342539,109.73483 L91.5528109,86.5555276 C92.931448,81.4155657 91.5894745,76.5490342 87.7733752,72.853527" id="Fill-1" fill="#006F4E"></path>
            <polyline id="Fill-2" fill="#006F4E" points="114.211756 183.97627 65.8410746 183.435152 91.5263072 80.3434887 139.756519 90.3937133 114.211756 183.97627"></polyline>
            <polygon id="Fill-3" fill="#006F4E" points="132.218409 104.778186 143.41978 104.778186 143.41978 88.7553394 132.218409 88.7553394"></polygon>
            <path d="M55.3729741,73.1494856 L47.3304091,73.1494856 C47.3295256,73.1494856 47.3286422,73.1494856 47.327317,73.1494856 L55.369882,73.1494856 C55.3707655,73.1494856 55.3720907,73.1494856 55.3729741,73.1494856" id="Fill-4" fill="#ADA39C"></path>
            <path d="M55.3729741,73.1494856 L47.3304091,73.1494856 C47.3295256,73.1494856 47.3286422,73.1494856 47.327317,73.1494856 L55.369882,73.1494856 C55.3707655,73.1494856 55.3720907,73.1494856 55.3729741,73.1494856" id="Fill-5" fill="#FFFFFE"></path>
            <path d="M144.954789,105.516315 L144.950813,105.511015 C141.568492,101.472284 136.266416,99.4248685 129.193888,99.4248685 L103.997208,99.4248685 C97.2908743,99.4248685 91.5174726,101.181184 86.8369091,104.644342 C83.9016181,106.815441 81.599325,109.307236 79.9503496,112.090572 L79.0823516,113.70686 C78.4886674,114.933984 78.0138085,116.212348 77.6573329,117.540186 L61.1587443,179.114598 C59.6754173,184.650349 60.667983,189.750555 64.0246838,193.859963 C67.3451628,197.934032 72.6922958,200 79.9163365,200 L105.114342,200 C111.687273,200 117.420036,198.252077 122.153607,194.803938 C126.966689,191.297491 130.095458,186.951317 131.452892,181.885566 L133.866942,172.872963 L104.544511,159.865803 L100.146212,176.283555 C100.109549,176.417399 100.075094,176.528273 100.043731,176.617502 C99.9399248,176.627662 99.8069643,176.636055 99.6413158,176.636055 L94.6290137,176.636055 L109.05545,122.791464 L114.479002,122.791022 L111.26233,134.79369 L141.42493,144.667223 L147.951922,120.311596 C149.439666,114.758175 148.402928,109.642067 144.954789,105.516315" id="Fill-6" fill="#006F4E"></path>
            <path d="M140.847148,108.948552 C138.52056,106.170516 134.635993,104.778186 129.19433,104.778186 L103.997208,104.778186 C98.4345114,104.778186 93.7742675,106.170516 90.0200103,108.948552 C86.2604524,111.729238 83.8662797,115.054134 82.8286576,118.925891 L66.330069,180.499861 C65.2924469,184.371618 65.9046837,187.699165 68.1747304,190.4772 C70.4394765,193.256561 74.3545231,194.646241 79.9167782,194.646241 L105.1139,194.646241 C110.555563,194.646241 115.186211,193.256561 119.001427,190.4772 C122.814434,187.699165 125.244387,184.371618 126.282009,180.499861 L127.511341,175.910294 L108.096014,167.297898 L105.316654,177.669701 C104.890385,179.260368 104.215864,180.376177 103.290883,181.021543 C102.360601,181.667793 101.147171,181.989372 99.6413158,181.989372 L91.9958654,181.989372 C90.4895686,181.989372 89.4749164,181.667793 88.9527924,181.021543 C88.4302267,180.376177 88.3829616,179.260368 88.8092304,177.669701 L103.585958,122.521567 L103.582424,122.522009 L95.3410813,117.441681 L116.937668,117.436822 C118.443964,117.436822 119.48512,117.759284 120.069086,118.404209 C120.647752,119.0509 120.724171,120.168476 120.299227,121.754284 L117.746032,131.283268 L137.717496,137.820419 L142.780156,118.925891 C143.817778,115.054134 143.170644,111.729238 140.847148,108.948552" id="Fill-7" fill="#FFFFFE"></path>
            <path d="M82.8697385,177.669701 C82.4434697,179.260368 82.4907347,180.376177 83.0133005,181.021543 C83.5354245,181.667793 84.5500766,181.989372 86.0559318,181.989372 L92.0665421,181.989372 C90.560687,181.989372 89.5460348,181.667793 89.0239108,181.021543 C88.5013451,180.376177 88.45408,179.260368 88.8803488,177.669701 L103.657077,122.521567 L103.653543,122.522009 L98.4813347,119.391474 L82.8697385,177.669701" id="Fill-8" fill="#D4D6D2"></path>
            <path d="M140.628051,108.691024 C138.232553,106.08217 134.370955,104.778186 129.030448,104.778186 L122.81841,104.778186 C128.158917,104.778186 132.020514,106.08217 134.416012,108.691024 C136.80135,111.289275 137.56775,114.405675 136.703728,118.029181 L133.49854,131.481162 L137.717496,137.820419 L143.107035,117.969547 C143.970616,114.3456 143.013831,111.289275 140.628051,108.691024" id="Fill-9" fill="#D4D6D2"></path>
            <path d="M120.733889,177.980679 C119.677273,181.847577 117.230534,185.162755 113.403392,187.921355 C109.573599,190.681279 104.936325,192.047106 99.4946617,192.019719 L74.2979817,191.891617 C72.4462526,191.881899 70.4673054,191.659709 68.9822116,191.343873 C71.3114501,193.575048 75.0723332,194.621946 79.7551053,194.645799 L104.993308,194.646241 C110.434971,194.673628 115.171634,193.237566 119.001427,190.4772 C122.828569,187.718601 125.203306,184.366759 126.260806,180.500744 L127.51355,175.917361 L121.979124,173.428659 L120.733889,177.980679" id="Fill-10" fill="#D4D6D2"></path>
            <path d="M164.610417,82.7102742 C163.698688,82.6700768 162.792259,82.591449 161.897316,82.4717404 C161.390652,82.4023889 160.888406,82.3180186 160.39146,82.2203964 C160.645013,82.2725205 160.899449,82.3219941 161.155652,82.3670505 C160.990887,82.384278 160.827447,82.3997385 160.667541,82.4121069 C156.231696,82.7623982 152.494224,81.8104716 149.116762,79.8200395 C146.923135,80.3320037 144.902223,81.1757067 143.273567,82.5039866 C141.162101,84.2254056 139.677008,86.8360257 140.783539,89.375969 C143.497524,85.1764488 149.904807,85.384945 155.208651,85.9203209 C155.223228,85.9220878 155.238247,85.923413 155.253265,85.9251799 C154.420164,86.2352739 153.599873,86.5798227 152.809619,86.9711948 C152.241114,87.2521347 151.688952,87.5586948 151.156668,87.8913169 C151.173012,87.8877831 151.188914,87.8833658 151.205258,87.8802737 C150.842599,88.2822473 150.507768,88.7010067 150.205625,89.1383187 C149.90304,89.5760724 149.633144,90.0323788 149.399027,90.5112133 C149.164911,90.9896061 148.967016,91.4896437 148.809319,92.014418 C148.65118,92.5396342 148.53368,93.0891454 148.459911,93.6656021 C149.39196,92.7189762 150.479055,92.0139763 151.661123,91.4490046 C152.842749,90.8844745 154.118905,90.459531 155.428632,90.0734596 C156.738359,89.6869465 158.081658,89.3393055 159.39757,88.9280556 C160.713039,88.5163639 162.001122,88.0419466 163.201742,87.400114 C163.650097,87.160255 164.094035,86.8952174 164.515887,86.6001422 C164.937738,86.3050671 165.338387,85.9803961 165.700605,85.6221536 C166.062381,85.2634694 166.386169,84.8720973 166.65474,84.4427364 C166.923753,84.0129338 167.137108,83.546026 167.279345,83.0367121 C167.294364,82.9832629 167.308499,82.9298136 167.321309,82.8763644 C167.33412,82.8233569 167.346488,82.7699076 167.357531,82.7169001 C166.439176,82.7535637 165.52303,82.7504715 164.610417,82.7102742 Z M155.7935,50.7105215 C154.348162,51.2768185 152.805202,51.9950703 151.429215,52.8767619 C150.823604,53.265042 150.25024,53.6855683 149.733858,54.1387825 C149.944121,54.5659347 150.166753,54.9855775 150.401753,55.3963858 C151.201283,54.9975042 152.022899,54.6317524 152.86351,54.3026641 C153.916593,53.8896472 154.998388,53.530963 156.099619,53.2279367 C156.960107,52.9916116 157.832964,52.7897413 158.715981,52.620559 C157.704421,52.0860665 156.737476,51.452185 155.819121,50.7003618 C155.810286,50.7038956 155.802335,50.7069877 155.7935,50.7105215 Z M103.930507,55.67335 C103.949502,56.009506 103.982189,56.3443368 104.025921,56.6778424 C104.522866,56.47288 105.026879,56.2816113 105.535751,56.1049195 C106.551729,55.7519778 107.588026,55.4555775 108.637133,55.214835 C108.674238,55.2064422 108.711343,55.1989328 108.748007,55.1909817 C108.237368,54.3640644 107.772227,53.498275 107.337123,52.6214424 C106.037556,53.4448258 104.897011,54.4775889 103.930507,55.67335 Z M114.096465,42.3105975 C111.921832,41.9925524 109.846146,40.5882951 107.889727,39.6641974 C105.74999,38.6535208 102.670254,37.9454288 100.886109,40.0542444 C101.936099,40.2159173 103.053675,40.8480319 103.902236,41.4567348 C104.783486,42.0884077 105.897528,42.7386332 106.973138,42.9643569 C106.371061,43.4184546 105.855563,43.9489714 105.456682,44.5899206 C105.058242,45.2308698 104.77686,45.9818096 104.639924,46.8771948 C105.9978,45.5162269 107.420168,44.3734733 109.06826,43.5796858 C110.588251,42.8481821 112.302602,42.3450524 114.096465,42.3105975 Z M128.243287,48.100785 C129.653287,49.8725611 130.425429,51.4972414 130.620232,51.9301361 C127.050618,52.2499481 123.737206,52.011856 119.940543,51.3810666 C119.934801,51.3801831 119.928617,51.378858 119.922432,51.3784162 C119.924641,51.3792997 119.927291,51.3810666 119.9295,51.3823918 C118.954603,51.1023354 117.953203,50.8629182 116.919998,50.701687 C115.83732,50.5325046 114.730346,50.4834727 113.640158,50.5448731 C113.754125,50.5360385 113.868974,50.525437 113.983824,50.5192528 C105.59936,49.8173449 97.191927,52.5207281 96.594709,62.5577009 C90.7325197,60.4652293 86.3333378,52.8290552 87.0520313,46.4456253 C85.1667307,48.8623262 84.2103868,52.0374763 84.6649263,55.1631527 C85.0293529,57.667316 86.1725483,60.1303985 87.4937606,62.5616765 C88.818065,64.9991386 90.3773693,67.463988 91.6769369,70.2420235 C91.9918899,70.9147772 92.3041925,71.6352376 92.4186003,72.3954537 C92.5330082,73.1556698 92.414183,73.9706603 91.978638,74.3682167 C90.0540235,71.7112151 87.9615519,69.9787528 85.5245314,68.4764315 C83.2266557,67.0598057 80.8770977,65.8256141 78.8769475,63.9195523 C75.6973801,60.8592518 74.2268633,57.3293931 74.4605381,53.5336134 C68.1707549,55.7780399 62.2047592,58.6899193 57.4733969,63.6500974 C57.4756055,63.6452384 57.4773724,63.6399376 57.4791393,63.6350786 C57.9486976,62.4207648 58.5136693,61.1940826 59.1510847,60.0703233 C62.8783963,53.498275 68.589956,48.5517905 75.0104911,44.77368 C79.403047,42.1895637 84.0959789,40.2945451 89.0027078,39.1040847 C87.5556027,38.3672802 86.1570878,37.6870171 84.8265992,37.1370642 C82.2327648,36.0667541 78.034128,34.998211 75.6280286,37.029724 C75.0206508,37.5425717 74.6085174,38.2484551 74.377493,39.1089437 C74.0369197,38.4494419 73.8195889,37.8235115 73.7436115,37.2170172 C73.6680758,36.6105229 73.7308013,36.0186056 73.9472487,35.4218294 C74.1230569,34.9341603 74.4176904,34.4827129 74.7834422,34.0935494 C75.1491941,33.7043859 75.5856226,33.377948 76.0432541,33.1385307 C79.9176617,31.1145272 84.8584037,32.044809 88.6952642,33.6951096 C89.6582341,34.10901 90.6008843,34.5750343 91.5267489,35.0794892 C97.6000848,32.5373372 105.050291,32.6817826 111.198721,35.4015098 C112.682931,36.0574778 114.089397,36.8614251 115.405309,37.7894983 C114.96888,36.7863311 114.39154,35.8772523 113.701117,35.06182 C116.640826,35.7032109 118.987733,36.8318292 120.947244,38.1972145 C122.975665,39.6103064 124.607413,41.2924115 125.847789,42.9943945 C125.130421,42.7814809 124.371088,42.6069979 123.569349,42.49259 C122.768052,42.3786238 121.924791,42.3238494 121.041774,42.3512366 C124.324265,43.8531162 126.684424,46.1430408 128.243287,48.100785 Z M147.7929,47.3016967 C147.815428,47.6440369 147.851208,47.9850519 147.896264,48.3243 C148.369798,48.1356816 148.847307,47.9563395 149.329234,47.790691 C150.384084,47.4275895 151.458369,47.1192625 152.548999,46.8670351 C152.029083,46.0118472 151.569685,45.1093943 151.151809,44.1848549 C149.881837,45.0369507 148.754544,46.0913585 147.7929,47.3016967 Z M149.743576,49.6733412 C149.263858,49.9728336 148.804018,50.2939708 148.374657,50.6354276 C148.50055,51.0837828 148.64367,51.527279 148.801809,51.9654744 C149.547007,51.6257846 150.307223,51.3139237 151.080691,51.0321005 C152.145258,50.6447039 153.232796,50.3120817 154.339769,50.0355592 C154.53148,49.9882942 154.723632,49.9441212 154.916226,49.8999483 C154.295596,49.2947792 153.738576,48.6282097 153.235004,47.9157004 C152.060446,48.3985105 150.851875,48.980268 149.743576,49.6733412 Z M151.587796,57.2600416 C152.055145,57.9204269 152.555183,58.551658 153.084375,59.1506429 C155.835023,56.8748537 159.124139,55.4502767 162.597457,54.6494216 C162.907109,54.5783031 163.218528,54.5133689 163.530389,54.4519686 C162.165887,54.0915175 160.851742,53.638745 159.598115,53.0556623 C158.936404,53.2827112 158.214177,53.5486322 157.467213,53.855634 C156.016132,54.4524103 154.474055,55.2024666 153.106461,56.1111037 C152.567993,56.4693462 152.056471,56.8527672 151.587796,57.2600416 Z M157.840474,32.4030515 C156.422523,32.2616981 154.233754,30.8702509 151.897006,29.7933149 C149.560258,28.7163789 147.066255,28.1226947 145.010447,30.083531 C146.096217,30.2960028 147.016781,30.91089 147.943088,31.5346117 C148.869836,32.1587752 149.802326,32.7913315 150.911508,33.0395834 C150.320916,33.4738032 149.81602,33.9756077 149.432157,34.5794516 C149.048294,35.1832956 148.785465,35.8900624 148.67945,36.7333236 C149.806302,35.5008989 151.314807,34.433681 152.93242,33.6663972 C154.550032,32.8995552 156.276752,32.4330891 157.840474,32.4030515 Z M175.431901,43.452026 C171.78145,43.7956914 168.427841,43.5558324 164.516329,42.871152 C163.370041,42.5102592 162.18709,42.210325 160.942739,42.0314246 C159.495192,41.8277874 157.964158,41.8401558 156.48304,42.0477686 C156.583754,42.0300994 156.684468,42.0124303 156.785624,41.9969697 C150.744535,42.092825 145.337768,43.7241312 141.178004,48.4524015 C138.67119,45.8400145 135.928935,43.6940936 133.203023,41.7610863 C134.162017,40.7044699 135.119245,39.6465282 136.074705,38.5872614 C134.672657,37.9427784 133.249405,37.3062465 131.868117,36.6551375 C128.688108,35.1554666 125.585402,33.1893296 122.342667,31.8561906 C123.228334,31.4489162 124.124161,31.0747715 125.022197,30.7364069 C127.05371,29.9717735 129.143089,29.4924972 131.269132,29.2362942 C129.427563,28.1823282 127.597037,27.1950632 125.758118,26.358428 C122.811342,25.02043 118.541587,23.7928643 115.783871,25.8645746 C115.126136,26.3593114 114.667621,27.0753546 114.400375,27.9429109 C114.058034,27.268832 113.84733,26.6327419 113.786813,26.0196216 C113.725854,25.4069431 113.812875,24.811492 114.061568,24.2155992 C114.264322,23.7292553 114.592085,23.2804583 114.992734,22.8970373 C115.393824,22.5131746 115.87045,22.1871784 116.362094,21.9636633 C120.611088,20.0377237 125.879152,21.076671 130.231952,23.2062478 C131.526219,23.8392459 132.798399,24.5442458 134.05291,25.3031367 C134.187196,25.2576386 134.32104,25.2116988 134.456651,25.1675258 C141.059178,23.0207215 148.320324,22.984058 155.031517,25.3539356 C157.267551,26.1441893 159.276536,27.1915294 161.030201,28.4133526 C161.585896,28.8007492 162.110671,29.2053732 162.608058,29.6241326 C162.651789,29.6387096 162.695079,29.6519615 162.73881,29.6665386 C162.673434,29.2897435 162.584205,28.9231082 162.471122,28.5679578 C162.345671,28.1765857 162.192833,27.7989072 162.012165,27.435364 C161.934863,27.2789918 161.850934,27.1261535 161.763472,26.9750821 C162.603641,27.2962192 163.318359,27.6703639 164.008782,28.1072342 C164.786667,28.6006458 165.573387,29.1757773 166.369825,29.8445555 C167.166262,30.5128919 167.972418,31.2744332 168.799777,32.152591 C169.114289,32.4860966 169.433217,32.8377131 169.75833,33.2074405 C168.24099,32.5757676 166.65739,32.1764443 165.031827,32.1799782 C168.573612,34.4062938 171.257117,37.3049213 173.039495,39.6973271 C174.229514,41.2941784 175.016234,42.6635392 175.431901,43.452026 Z M102.693665,14.6609949 C103.336823,15.040882 103.991908,15.398241 104.656268,15.734397 C107.207255,15.0514835 109.751616,14.3402994 112.295976,13.6383916 C113.581408,13.283683 114.867724,12.9307413 116.155365,12.5839838 C114.156982,12.6449424 112.153298,12.606512 110.145196,12.3869725 C109.30326,12.2893503 108.479435,12.1378372 107.667095,11.9297827 C107.044257,11.7703184 106.428045,11.5772827 105.816691,11.3506756 C103.8828,11.283091 101.957744,11.0458824 100.041081,10.5979689 C99.2229982,10.4067001 98.3382144,9.99147462 97.5046713,9.59391827 C98.9946242,11.459341 100.634323,13.4444724 102.693665,14.6609949 Z M155.275794,18.5362859 C155.418472,18.7332971 155.559826,18.9298666 155.699412,19.1259944 C156.113754,19.7064267 156.504685,20.2979022 156.869111,20.9026296 C156.901357,20.9021879 156.933162,20.9008627 156.96585,20.8999792 C158.911667,20.8681747 160.789017,21.0810882 162.583321,21.533419 C160.990004,18.9082219 158.420464,16.8524138 155.66054,16.0369816 C155.335869,15.9406846 155.012523,15.8571978 154.689177,15.7812203 C154.829647,16.176568 154.950239,16.5758913 155.043444,16.9796319 C155.163153,17.4942465 155.241339,18.0141618 155.275794,18.5362859 Z M99.3321053,27.1111347 C103.041306,27.275458 106.766851,27.1142268 110.443364,26.5938697 C110.433204,26.5139167 110.421277,26.4339637 110.413768,26.3544524 C110.29671,25.1759187 110.471634,24.0177045 110.933241,22.9111727 C111.31092,22.0047442 111.88826,21.17606 112.648918,20.4480902 C113.326531,19.8000733 114.125177,19.257188 114.959162,18.8777426 C119.624707,16.7631845 125.733381,17.232301 131.721021,20.1614079 C132.654395,20.618156 133.574076,21.107592 134.478737,21.6222066 C135.99166,21.1800356 137.533295,20.8376954 139.0926,20.6013702 C141.004846,20.3111541 142.941829,20.1768684 144.879253,20.1985131 C146.79945,20.2197161 148.721415,20.3950827 150.616433,20.7409567 C151.885963,20.9728646 153.146217,21.2869341 154.376875,21.7008344 C154.18163,21.3368495 153.974017,20.9790488 153.750061,20.6296409 C152.98366,19.4321128 152.04852,18.3180716 150.927411,17.3232972 C148.105202,14.7422731 144.826688,13.2315589 141.335259,12.3988992 C141.853849,12.7425646 142.346378,13.107433 142.80931,13.4926209 C143.37119,13.9612957 143.891547,14.4573577 144.36508,14.9728557 C144.839498,15.4883538 145.268417,16.0224045 145.654488,16.5661733 C146.041001,17.1103837 146.385108,17.6651957 146.690785,18.2213329 C145.703962,17.4169439 144.636302,16.6885323 143.498408,16.0692278 C142.360513,15.4499234 141.152825,14.9388426 139.886387,14.5695569 C138.620391,14.1945287 137.304038,13.9484855 135.946162,13.8168502 C134.588286,13.6852149 133.189771,13.6675457 131.760335,13.7505908 C130.330016,13.8305438 128.870101,13.9984009 127.382356,14.2351678 C125.895054,14.4719347 124.379481,14.7780531 122.838287,15.1336452 C122.06747,15.3112204 121.290468,15.4989553 120.505957,15.6959666 C119.721446,15.8929778 118.929867,16.0992654 118.130337,16.3130624 C117.33434,16.5259759 116.522,16.7468405 115.698617,16.9690304 C114.874792,17.1912202 114.040365,17.4142935 113.199313,17.6311826 C111.516766,18.0680528 109.835102,18.4823949 108.157856,18.85919 C106.48061,19.2355433 104.80734,19.5747914 103.140695,19.8614737 C101.475818,20.1485977 99.8171241,20.3827142 98.1743329,20.5532218 C96.5319834,20.7237293 94.9050945,20.8306277 93.3038258,20.8633157 C91.7038824,20.8964454 90.1286757,20.8566898 88.5742304,20.72903 C87.0206685,20.6009285 85.486101,20.383156 84.0032158,20.0712951 C83.7430372,20.0178459 83.4859508,19.9608628 83.231073,19.9012293 C83.1471444,19.8817932 82.953667,19.8323196 82.7239678,19.7722444 C80.7481127,19.8667744 78.7665152,19.8597068 76.7831507,19.7232124 C76.018959,19.6702049 75.2565343,19.59997 74.4954347,19.5107406 C77.8128216,22.2326765 81.8307912,24.0976575 85.9724449,25.1662006 C90.3265705,26.2890765 94.8419272,26.9127982 99.3321053,27.1111347 Z M107.773994,65.2999563 C108.22014,65.907334 108.688815,66.4895332 109.176042,67.0412531 C111.820676,64.853368 114.943702,63.4831237 118.323372,62.7215825 C118.715628,62.6332366 119.10965,62.5532836 119.50544,62.4803983 C117.966013,62.1380581 116.533927,61.7064886 115.187978,61.0827668 C114.668504,61.2665262 114.118551,61.4745807 113.554021,61.7091389 C112.155948,62.2895712 110.672621,63.0281426 109.387189,63.9381049 C108.797922,64.3555391 108.251503,64.8096368 107.773994,65.2999563 Z M122.426596,87.0679335 C122.21324,87.1337512 121.9884,87.1898508 121.755609,87.2357907 C119.531502,87.675753 117.281333,87.3104429 115.213598,86.4897099 C115.212273,86.4923603 115.210948,86.4950107 115.209623,86.4972193 C114.528034,86.2198133 113.864999,85.8924919 113.227583,85.5298322 C112.998768,85.3915709 112.777903,85.2431499 112.56013,85.091195 C112.558363,85.0934037 112.556597,85.0956123 112.555271,85.0978209 C110.644351,83.764682 109.106691,81.9509415 107.328731,80.4075394 C106.071127,79.3164681 104.441588,78.4692313 102.777152,78.470555 C102.442763,78.4709983 102.121184,78.5072201 101.814182,78.5695039 C105.627631,82.5675956 107.661353,86.0705088 109.740572,87.8842493 C110.744181,88.7310443 111.744256,89.4709408 112.79513,90.0275197 C113.843354,90.5858655 114.954303,90.9467584 116.091314,91.0903204 C115.009961,91.4467959 113.706418,91.5448598 112.371512,91.3027922 C111.033514,91.0686757 109.691099,90.5266738 108.41936,89.8278581 C106.744323,88.9068525 105.150122,87.6894466 103.501588,86.3037419 C103.482594,86.3169938 103.463599,86.3298039 103.445047,86.3426141 C103.031588,86.6310633 102.635799,86.9362982 102.264746,87.2569937 C101.89546,87.5768057 101.545611,87.9160538 101.221381,88.2738545 C100.897594,88.6316552 100.599868,89.0084503 100.335273,89.403798 C100.093647,89.7814765 99.8825,90.1825667 99.7093421,90.5986757 C99.5357425,91.0147847 99.4005734,91.4467959 99.3091354,91.8867583 C99.2181392,92.3267206 99.1717576,92.7750759 99.1761749,93.2238728 C99.1810339,93.6726698 99.2371335,94.1227919 99.350658,94.5658464 C100.066701,93.9456585 100.842819,93.4306021 101.661344,93.0025664 C102.480752,92.5754142 103.342565,92.2352827 104.230441,91.9653861 C105.117875,91.6954895 106.03093,91.4967113 106.952377,91.3513824 C107.367603,91.2855647 107.785037,91.2325572 108.202029,91.1870591 C107.68123,91.732153 107.233759,92.3435064 106.866682,93.0056586 C106.366202,93.907228 106.014144,94.9024441 105.824642,95.9489008 C105.635582,96.9957992 105.609078,98.0934964 105.761033,99.2013535 C105.912546,100.30921 106.24296,101.427227 106.765967,102.51344 C106.915272,102.233825 107.079595,101.97188 107.254962,101.723186 C109.460516,93.8087224 122.97434,96.9326319 122.646135,88.0348789 C122.637742,87.7959034 122.537028,87.404973 122.426596,87.0679335 Z M111.710685,58.8246467 C110.3453,59.3648816 108.884059,60.0553045 107.597744,60.914468 C106.974022,61.3310187 106.392264,61.7877667 105.884276,62.2860374 C106.09233,62.6800599 106.310986,63.0670147 106.539802,63.4469019 C107.341541,62.9985467 108.179059,62.5925975 109.045732,62.2325881 C110.052433,61.8147122 111.094031,61.4555863 112.15904,61.1534435 C112.860506,60.9542236 113.573016,60.7823909 114.293476,60.6322029 C113.469209,60.1820808 112.676305,59.6467049 111.909463,58.9995715 C111.841879,58.9425884 111.776944,58.882955 111.710685,58.8246467 Z M109.381888,56.1566019 C109.850563,56.8315642 110.357668,57.469863 110.91248,58.0542709 C110.715469,58.1002107 110.518016,58.1461506 110.321888,58.196066 C109.266155,58.4646374 108.22765,58.7888667 107.21609,59.1705208 C106.430253,59.4664794 105.661644,59.7982181 104.916447,60.1639699 C104.762283,59.7584624 104.624022,59.3485377 104.502988,58.9341956 C104.942067,58.5613761 105.421785,58.2150603 105.92624,57.8943649 C107.018195,57.1995247 108.222349,56.6257184 109.381888,56.1566019 L109.381888,56.1566019 Z" id="Fill-11" fill="#D4D6D2"></path>
            <path d="M180.683179,43.1900805 C180.680528,43.1538587 180.676994,43.1185204 180.673902,43.0827403 C178.772258,45.4146292 177.604767,46.5405971 175.507437,48.0667718 C175.51848,49.575719 175.511412,51.085108 175.461497,52.5922883 C175.461497,52.5944969 175.461497,52.5971473 175.461055,52.599356 C175.453987,52.8171285 175.44692,53.034901 175.438085,53.2526736 C175.430134,53.4328991 175.422183,53.6166585 175.412906,53.8048352 C175.406281,53.947072 175.398771,54.0928427 175.391262,54.2412637 L175.389937,54.2615832 C176.857361,54.5628426 177.852577,54.9581903 178.493526,55.2916959 C179.21222,55.6658406 179.486976,55.962241 179.486976,55.962241 C180.356741,53.3392525 180.728677,50.8704275 180.839551,48.6529466 C180.940265,46.650146 180.833366,44.7644037 180.683179,43.1900805" id="Fill-12" fill="#FFFFFE"></path>
            <path d="M126.28996,86.4110821 C126.060261,86.2520596 125.783296,86.1849167 125.481154,86.179616 C125.241736,86.1751987 124.986417,86.210537 124.72668,86.2688453 C124.857432,86.0599073 124.982,85.8500859 125.099058,85.639381 C126.35136,83.4015805 126.914123,81.1134228 127.047084,79.1221072 C125.964405,80.8055375 124.714312,82.6007253 123.183278,84.2779714 C122.725646,84.7806593 122.248137,85.2643529 121.741474,85.7396536 C122.378889,86.0453303 123.032648,86.3236197 123.70496,86.5868904 C123.65372,86.6058847 123.601596,86.6248791 123.55168,86.6443152 C123.240261,86.7640238 122.949161,86.8850576 122.700468,86.9769373 C122.61168,87.0096253 122.519801,87.0392211 122.426596,87.0679335 C122.537028,87.404973 122.637742,87.7959034 122.646135,88.0348789 C122.97434,96.9326319 109.460516,93.8087224 107.254962,101.723186 C107.677255,101.123318 108.1689,100.606936 108.716202,100.160789 C113.509407,96.2510436 120.818701,97.5563536 125.306671,92.9928484 C126.040825,92.2463259 126.649086,91.3593335 126.976849,90.3650009 C127.091699,90.0178017 127.18137,89.6074352 127.222892,89.1807247 C127.322723,88.1378019 127.130571,86.9928396 126.28996,86.4110821" id="Fill-13" fill="#FFFFFE"></path>
            <path d="M120.911464,35.4545173 C118.082188,33.9866509 115.191953,33.5316698 112.318063,33.6739066 C112.816775,34.1015006 113.280149,34.5644328 113.701117,35.06182 C116.640826,35.7032109 118.987733,36.8318292 120.947244,38.1972145 C122.975665,39.6103064 124.607413,41.2924115 125.847789,42.9943945 C125.130421,42.7814809 124.371088,42.6069979 123.569349,42.49259 C122.768052,42.3786238 121.924791,42.3238494 121.041774,42.3512366 C124.324265,43.8531162 126.684424,46.1430408 128.243287,48.100785 C129.653287,49.8725611 130.425429,51.4972414 130.620232,51.9301361 C132.215758,51.7870158 133.862083,51.5330215 135.62635,51.1522508 C135.224376,50.6235009 132.168935,46.6815088 127.121736,43.1335392 C127.740157,42.2006069 128.501698,41.2530976 129.391341,40.3016128 C126.486088,38.8425809 123.804349,36.9559552 120.911464,35.4545173" id="Fill-14" fill="#FFFFFE"></path>
            <path d="M107.337123,52.6214424 C107.772227,53.498275 108.237368,54.3640644 108.748007,55.1909817 C109.761334,54.9626076 110.785262,54.7845907 111.816258,54.6591396 C112.884801,54.5292712 113.960412,54.4541772 115.043532,54.4334159 C115.048391,54.4334159 114.479444,54.54429 113.570807,54.7810569 C112.662612,55.0182655 111.411634,55.3818087 110.053758,55.8933312 C109.83201,55.9763763 109.607612,56.0651639 109.381888,56.1566019 C109.850563,56.8315642 110.357668,57.469863 110.91248,58.0542709 C111.777386,57.8524006 112.65201,57.6858686 113.535469,57.5573254 C114.621239,57.3991863 115.719378,57.2962634 116.829886,57.2467897 C116.834745,57.2467897 116.24857,57.3691487 115.318288,57.6257935 C114.388448,57.8815547 113.112292,58.2716017 111.738514,58.8136035 C111.729238,58.8171373 111.719961,58.8211129 111.710685,58.8246467 C111.776944,58.882955 111.841879,58.9425884 111.909463,58.9995715 C112.676305,59.6467049 113.469209,60.1820808 114.293476,60.6322029 C114.666737,60.5544586 115.040882,60.4806898 115.418561,60.4161973 C116.524651,60.2262537 117.647968,60.091968 118.787188,60.0115733 C118.792489,60.0115733 118.183786,60.1480677 117.223908,60.4272406 C116.651427,60.5933308 115.953936,60.8111033 115.187978,61.0827668 C116.533927,61.7064886 117.966013,62.1380581 119.50544,62.4803983 C122.51715,61.9255863 125.608813,61.808528 128.539687,61.9688758 C128.625383,60.273077 128.647027,59.1100038 128.609039,57.9690171 C128.593136,57.4866487 128.566633,57.0086976 128.525994,56.5011507 C125.652545,54.7298163 122.772028,53.1046943 119.9295,51.3823918 C118.954603,51.1023354 117.953203,50.8629182 116.919998,50.701687 C115.83732,50.5325046 114.730346,50.4834727 113.640158,50.5448731 C112.25357,50.6548637 110.885093,50.9645159 109.620422,51.4610196 C108.812499,51.778623 108.050958,52.1691116 107.337123,52.6214424" id="Fill-15" fill="#FFFFFE"></path>
            <path d="M165.288471,26.3005614 C163.455295,25.3490766 161.597381,24.8079582 159.733726,24.5698661 C159.946197,24.7523003 160.149393,24.9409187 160.343312,25.1366048 C160.732034,25.5284187 161.08365,25.9462946 161.392861,26.3906742 C161.524938,26.5801761 161.647739,26.7754204 161.763472,26.9750821 C162.603641,27.2962192 163.318359,27.6703639 164.008782,28.1072342 C164.786667,28.6006458 165.573387,29.1757773 166.369825,29.8445555 C167.166262,30.5128919 167.972418,31.2744332 168.799777,32.152591 C169.114289,32.4860966 169.433217,32.8377131 169.75833,33.2074405 C168.24099,32.5757676 166.65739,32.1764443 165.031827,32.1799782 C168.573612,34.4062938 171.257117,37.3049213 173.039495,39.6973271 C174.229514,41.2941784 175.016234,42.6635392 175.431901,43.452026 C177.068066,43.2983042 178.763423,43.0275242 180.596158,42.626434 C180.304175,42.2447799 178.529307,39.8647425 175.848893,37.3764814 C174.63723,36.2717165 173.255059,35.1762279 171.754946,34.2764253 C172.396779,33.30948 173.186149,32.3275158 174.108038,31.341576 C171.08661,29.8237942 168.297973,27.8620744 165.288471,26.3005614" id="Fill-16" fill="#FFFFFE"></path>
            <path d="M159.598115,53.0556623 C160.851742,53.638745 162.165887,54.0915175 163.530389,54.4519686 C166.718791,53.8220626 170.030435,53.6877769 173.179081,53.8613765 C173.227672,52.0803241 173.216187,50.861593 173.139326,49.6455123 C173.095153,49.0973262 173.031544,48.5615086 172.945848,47.988144 C170.157211,46.2464054 167.332794,44.6106819 164.505285,42.8702685 C164.50396,42.8698268 164.503077,42.8693851 164.502193,42.8689433 C164.507052,42.8698268 164.511911,42.8702685 164.516329,42.871152 C163.370041,42.5102592 162.18709,42.210325 160.942739,42.0314246 C159.495192,41.8277874 157.964158,41.8401558 156.48304,42.0477686 C155.526696,42.215184 154.586254,42.4793381 153.689544,42.8397892 C152.791066,43.2011238 151.94383,43.6538963 151.151809,44.1848549 C151.569685,45.1093943 152.029083,46.0118472 152.548999,46.8670351 C152.55695,46.8652682 152.565343,46.8630595 152.573736,46.8608509 C153.672758,46.60774 154.788566,46.4111705 155.922044,46.271584 C157.055521,46.1324393 158.206226,46.0498359 159.376808,46.0246573 C159.381667,46.0246573 158.766338,46.1448077 157.796301,46.3992438 C156.826705,46.6532381 155.502843,47.0419599 154.076499,47.5821948 C153.799534,47.6868846 153.518153,47.7990839 153.235004,47.9157004 C153.738576,48.6282097 154.295596,49.2947792 154.916226,49.8999483 C155.837232,49.6870348 156.770164,49.5103431 157.715023,49.3742905 C158.857335,49.2099672 160.015991,49.1021852 161.190107,49.0500612 C161.195408,49.0496195 160.566827,49.18258 159.577795,49.4560104 C158.594064,49.7281156 157.254741,50.1393656 155.819121,50.7003618 C156.737476,51.452185 157.704421,52.0860665 158.715981,52.620559 C158.962908,52.5737357 159.210276,52.5277958 159.45897,52.4858315 C160.595098,52.294121 161.746686,52.1580684 162.908876,52.0776737 C162.913735,52.0772319 162.278528,52.2243278 161.279336,52.519403 C160.794318,52.662965 160.223162,52.8418653 159.598115,53.0556623" id="Fill-17" fill="#FFFFFE"></path>
            <path d="M155.66054,16.0369816 C158.420464,16.8524138 160.990004,18.9082219 162.583321,21.533419 C163.520229,21.7693025 164.43505,22.0692366 165.324693,22.435872 C165.206751,21.9490863 165.051704,21.4653927 164.854251,20.9856747 C163.513603,17.7345472 160.486432,15.0709196 157.214985,14.1119254 C155.99272,13.7536829 154.779732,13.5297262 153.579995,13.4422638 C154.02835,14.1932036 154.40382,14.9777148 154.689177,15.7812203 C155.012523,15.8571978 155.335869,15.9406846 155.66054,16.0369816" id="Fill-18" fill="#FFFFFE"></path>
            <path d="M116.661145,78.9573422 C115.467151,80.8682631 114.147705,82.9920975 112.56013,85.091195 C112.777903,85.2431499 112.998768,85.3915709 113.227583,85.5298322 C113.864999,85.8924919 114.528034,86.2198133 115.209623,86.4972193 C115.210948,86.4950107 115.212273,86.4923603 115.213598,86.4897099 C115.102724,86.445537 114.99185,86.4013641 114.882301,86.3545408 C115.074453,85.9530088 115.249378,85.5505935 115.407517,85.1495033 C116.268448,82.9616181 116.628457,80.8271823 116.661145,78.9573422" id="Fill-19" fill="#FFFFFE"></path>
            <path d="M177.634363,57.0930679 C177.496543,57.0321093 177.353423,56.9760097 177.205444,56.921677 C177.121957,56.8907559 177.033169,56.8593932 176.939965,56.8280304 C173.505519,55.6671658 169.692071,55.8204459 166.142334,56.2409722 C164.092268,56.4839233 162.315633,56.8978236 160.788133,57.3987446 C159.260634,57.8996656 157.982711,58.488049 156.931395,59.0795245 C156.86116,59.1188384 156.794901,59.1581523 156.726874,59.197908 C158.497325,58.87147 160.246132,58.6143836 161.948114,58.4310659 C162.270577,59.8644775 162.511761,61.3129078 162.668575,62.7622215 C162.750737,63.5242046 162.811695,64.2883962 162.847475,65.0530296 C164.085201,62.8934151 164.97396,60.5624097 165.53584,58.1501261 C165.748753,58.1404081 165.961667,58.13069 166.174139,58.1227389 C168.5449,58.0564795 171.27832,57.7967427 174.282079,58.3851261 C174.383235,58.4050039 174.484391,58.4284156 174.585548,58.4500603 C174.879739,60.6838853 175.046713,62.9124095 175.14566,65.0808585 C176.402822,62.6182178 177.396271,60.0151071 178.089786,57.3302766 C178.07035,57.3183499 178.051355,57.305098 178.031478,57.293613 C177.90426,57.2198442 177.771741,57.1540266 177.634363,57.0930679" id="Fill-20" fill="#FFFFFE"></path>
            <path d="M172.911394,69.0988281 C171.841967,70.86442 170.576854,72.7413277 169.005181,74.3403877 C168.539599,74.8143633 168.051046,75.2410738 167.532898,75.6501151 C168.196375,76.0975868 168.883264,76.4991188 169.596215,76.860895 C167.176422,77.2474082 164.762372,77.3763931 162.428274,77.2478499 C161.554534,77.197051 160.69272,77.1091469 159.846808,76.9854627 C160.045586,76.4924928 160.212118,76.0017316 160.334036,75.5215718 C160.85881,73.4445608 161.08365,71.3096831 160.809336,69.1063375 C159.585305,71.6299369 158.261884,74.0325024 156.687119,76.3211018 C156.662382,76.3140342 156.638087,76.3069665 156.614233,76.2998988 C156.6107,76.3051996 156.607607,76.3105003 156.604074,76.3162428 C156.068698,76.1638462 155.543923,75.9942222 155.032401,75.8047203 C154.466987,75.5953406 153.917918,75.3625493 153.389168,75.1050211 C152.859976,74.847493 152.351104,74.5656697 151.866969,74.2582261 C151.381508,73.9512243 150.921668,73.6172769 150.492307,73.2559424 C150.062946,72.8941661 149.663623,72.5054443 149.299638,72.0893353 C148.935212,71.6736681 148.606123,71.2301719 148.315907,70.7623806 C148.025691,70.295031 147.774789,69.8029446 147.566734,69.2909803 C147.357796,68.7794578 147.19259,68.2484992 147.066697,67.7078226 C146.941246,67.1667042 146.855108,66.6149843 146.804751,66.0610558 C146.636452,66.5889223 146.504375,67.1481516 146.421772,67.731676 C146.360372,68.1663376 146.3268,68.6146928 146.325917,69.0740913 C146.325917,69.2247209 146.329451,69.3771175 146.336518,69.5299559 C146.393943,70.7791663 146.711105,72.0906605 147.293746,73.3376623 C147.872411,74.5877561 148.709046,75.7654064 149.722815,76.8008198 C150.7357,77.8397671 151.917768,78.7461956 153.204083,79.5117125 C155.368557,80.7989116 157.816179,81.6934134 160.39146,82.2203964 C160.888406,82.3180186 161.390652,82.4023889 161.897316,82.4717404 C162.792259,82.591449 163.698688,82.6700768 164.610417,82.7102742 C165.52303,82.7504715 166.439176,82.7535637 167.357531,82.7169001 C167.346488,82.7699076 167.33412,82.8233569 167.321309,82.8763644 C167.308499,82.9298136 167.294364,82.9832629 167.279345,83.0367121 C167.137108,83.546026 166.923753,84.0129338 166.65474,84.4427364 C166.386169,84.8720973 166.062381,85.2634694 165.700605,85.6221536 C165.338387,85.9803961 164.937738,86.3050671 164.515887,86.6001422 C164.094035,86.8952174 163.650097,87.160255 163.201742,87.400114 C162.001122,88.0419466 160.713039,88.5163639 159.39757,88.9280556 C158.081658,89.3393055 156.738359,89.6869465 155.428632,90.0734596 C154.118905,90.459531 152.842749,90.8844745 151.661123,91.4490046 C150.479055,92.0139763 149.39196,92.7189762 148.459911,93.6656021 C148.53368,93.0891454 148.65118,92.5396342 148.809319,92.014418 C148.967016,91.4896437 149.164911,90.9896061 149.399027,90.5112133 C149.633144,90.0323788 149.90304,89.5760724 150.205625,89.1383187 C150.507768,88.7010067 150.842599,88.2822473 151.205258,87.8802737 C151.188914,87.8833658 151.173012,87.8877831 151.156668,87.8913169 C149.366781,89.0102172 147.813219,90.4414201 146.719056,92.3421812 C145.992411,93.6055269 145.543614,95.0866452 145.484422,96.5673218 C145.425231,98.0479983 145.756086,99.5282331 146.58742,100.788045 C146.907674,99.536626 147.486781,98.3943141 148.271292,97.415442 C149.055804,96.4365699 150.046602,95.6224628 151.188914,95.0287787 C152.368332,94.4165419 153.630352,93.9748126 154.916226,93.6028765 C156.202542,93.2313822 157.512711,92.9292394 158.78975,92.597059 C161.274036,91.9503673 164.029101,91.1397941 166.420623,89.8358092 C168.812588,88.5313827 170.84145,86.7335445 171.873771,84.1114395 C172.421957,82.718667 172.6013,81.1492029 172.353489,79.6698515 C172.147202,78.4414024 171.644514,77.2752371 170.813621,76.3250774 C170.894899,76.1947673 170.974411,76.0640154 171.049505,75.9323801 C172.346864,73.5863559 172.856177,71.1868824 172.911394,69.0988281" id="Fill-21" fill="#FFFFFE"></path>
            <path d="M130.365354,64.3564225 C130.096341,64.3003229 129.8048,64.2477571 129.490289,64.1987252 C129.490289,64.1951913 129.490289,64.1920992 129.490289,64.1885654 L128.453108,64.1161218 C120.831069,63.5847215 115.818326,65.2973059 112.793805,67.0200501 C114.66497,66.6503227 116.510515,66.3596648 118.295985,66.1564693 L118.325139,66.1529355 C118.442198,66.1392419 118.557931,66.1277569 118.674547,66.1145051 C118.947536,67.3570895 119.153823,68.611159 119.289876,69.8665536 C119.364528,70.5565347 119.419303,71.2487245 119.451549,71.9417977 C120.54262,70.0379445 121.335083,67.9865538 121.846163,65.8640446 C124.105609,65.7615634 126.70386,65.4845991 129.551247,66.0111404 C129.711153,66.0407363 129.871059,66.073866 130.030082,66.1074374 C130.284518,68.0815256 130.431614,70.050313 130.519076,71.9665346 C131.598221,69.8524182 132.46401,67.6243357 133.086407,65.3269018 C132.976416,65.2438567 132.855382,65.1674375 132.710495,65.0998529 C131.961764,64.7500033 131.172835,64.5233962 130.365354,64.3564225" id="Fill-22" fill="#FFFFFE"></path>
            <path d="M145.654488,16.5661733 C145.268417,16.0224045 144.839498,15.4883538 144.36508,14.9728557 C143.891547,14.4573577 143.37119,13.9612957 142.80931,13.4926209 C142.346378,13.107433 141.853849,12.7425646 141.335259,12.3988992 C144.826688,13.2315589 148.105202,14.7422731 150.927411,17.3232972 C152.04852,18.3180716 152.98366,19.4321128 153.750061,20.6296409 C153.974017,20.9790488 154.18163,21.3368495 154.376875,21.7008344 C154.917551,21.8823852 155.452927,22.0816051 155.97991,22.3042366 C156.544882,22.5436539 157.089092,22.8082497 157.605916,23.0975824 C157.808228,23.2106651 158.005239,23.3290486 158.199158,23.4496407 C158.166912,23.3780805 158.135107,23.3065204 158.102419,23.235402 C158.054713,23.1329208 158.007889,23.0308813 157.958857,22.9292836 C157.914684,22.8369621 157.869628,22.7455242 157.824572,22.6540862 C157.74506,22.4946219 157.665991,22.3351577 157.582946,22.1770186 C157.576762,22.1650919 157.570577,22.1536069 157.564393,22.142122 C157.344412,21.7238043 157.112062,21.3107875 156.867344,20.9030713 C156.868228,20.9026296 156.868669,20.9026296 156.869111,20.9026296 C156.504685,20.2979022 156.113754,19.7064267 155.699412,19.1259944 C155.559826,18.9298666 155.418472,18.7332971 155.275794,18.5362859 C155.276235,18.5411449 155.276677,18.5460039 155.277119,18.5508629 C153.991245,16.8745003 152.44961,15.3827805 150.747627,14.0973483 C149.739601,13.2788239 148.652505,12.5495289 147.482806,11.9302244 C146.969516,11.6585609 146.448717,11.4111925 145.922176,11.1845854 C144.676058,10.5953186 143.398577,10.1014652 142.114911,9.71009307 C136.030532,7.85483009 129.531811,8.155206 123.157216,9.16279049 C119.245703,9.78076976 115.24982,10.6659952 111.342724,11.113467 C109.491879,11.3250553 107.649868,11.4142846 105.816691,11.3506756 C106.428045,11.5772827 107.044257,11.7703184 107.667095,11.9297827 C108.479435,12.1378372 109.30326,12.2893503 110.145196,12.3869725 C112.153298,12.606512 114.156982,12.6449424 116.155365,12.5839838 C114.867724,12.9307413 113.581408,13.283683 112.295976,13.6383916 C109.751616,14.3402994 107.207255,15.0514835 104.656268,15.734397 C104.657152,15.734397 104.657594,15.7348387 104.658035,15.7352805 C104.445122,15.7922636 104.23265,15.8479214 104.019736,15.9044628 C103.868665,15.9446602 103.717152,15.9861827 103.565197,16.0259383 C103.548853,16.0303556 103.532067,16.0338895 103.515723,16.0383068 C100.614004,16.8029402 97.7016825,17.5207502 94.7641828,18.1312201 C90.79392,18.9563704 86.770208,19.5783252 82.7239678,19.7722444 C82.953667,19.8323196 83.1471444,19.8817932 83.231073,19.9012293 C83.4859508,19.9608628 83.7430372,20.0178459 84.0032158,20.0712951 C85.486101,20.383156 87.0206685,20.6009285 88.5742304,20.72903 C90.1286757,20.8566898 91.7038824,20.8964454 93.3038258,20.8633157 C94.9050945,20.8306277 96.5319834,20.7237293 98.1743329,20.5532218 C99.8171241,20.3827142 101.475818,20.1485977 103.140695,19.8614737 C104.80734,19.5747914 106.48061,19.2355433 108.157856,18.85919 C109.835102,18.4823949 111.516766,18.0680528 113.199313,17.6311826 C114.040365,17.4142935 114.874792,17.1912202 115.698617,16.9690304 C116.522,16.7468405 117.33434,16.5259759 118.130337,16.3130624 C118.929867,16.0992654 119.721446,15.8929778 120.505957,15.6959666 C121.290468,15.4989553 122.06747,15.3112204 122.838287,15.1336452 C124.379481,14.7780531 125.895054,14.4719347 127.382356,14.2351678 C128.870101,13.9984009 130.330016,13.8305438 131.760335,13.7505908 C133.189771,13.6675457 134.588286,13.6852149 135.946162,13.8168502 C137.304038,13.9484855 138.620391,14.1945287 139.886387,14.5695569 C141.152825,14.9388426 142.360513,15.4499234 143.498408,16.0692278 C144.636302,16.6885323 145.703962,17.4169439 146.690785,18.2213329 C146.385108,17.6651957 146.041001,17.1103837 145.654488,16.5661733" id="Fill-23" fill="#FFFFFE"></path>
            <g id="Group-27" transform="translate(33.042234, 0.000000)">
                <path d="M97.5841826,56.3266676 C97.7171431,58.2115265 97.7277446,59.6422876 97.5824156,62.2025505 L97.5749062,62.3363945 C100.575573,62.9517234 101.520874,63.9756519 101.520874,63.9756519 C103.127885,59.1285565 102.970629,54.7872411 102.662302,51.5904463 C100.830451,53.8304555 99.6823966,54.8989986 97.5841826,56.3266676" id="Fill-24" fill="#FFFFFE"></path>
                <path d="M70.8600027,41.4567348 C70.0114408,40.8480319 68.8938657,40.2159173 67.8438752,40.0542444 C69.6280198,37.9454288 72.7077563,38.6535208 74.847493,39.6641974 C76.803912,40.5882951 78.8795978,41.9925524 81.0542311,42.3105975 C79.2603685,42.3450524 77.5460171,42.8481821 76.0260267,43.5796858 C74.3779347,44.3734733 72.9555665,45.5162269 71.5976906,46.8771948 C71.7346267,45.9818096 72.0160083,45.2308698 72.4144481,44.5899206 C72.8133296,43.9494132 73.3288277,43.4184546 73.9309047,42.9643569 C72.8552939,42.7386332 71.7412527,42.0884077 70.8600027,41.4567348 Z M118.854773,29.7933149 C121.191521,30.8702509 123.380289,32.2616981 124.79824,32.4030515 C123.234518,32.4330891 121.507799,32.8995552 119.890186,33.6663972 C118.272573,34.433681 116.764068,35.5008989 115.637217,36.7333236 C115.743232,35.8900624 116.006061,35.1837373 116.389923,34.5794516 C116.773786,33.9756077 117.278683,33.4738032 117.869275,33.0400251 C116.760092,32.7913315 115.827602,32.1587752 114.900854,31.5346117 C113.974548,30.91089 113.053984,30.2960028 111.968213,30.083531 C114.024021,28.1226947 116.518025,28.7163789 118.854773,29.7933149 Z M141.543314,58.4500603 C141.442158,58.4284156 141.341002,58.4050039 141.239846,58.3851261 C138.236087,57.7967427 135.502666,58.0564795 133.131905,58.1227389 C132.919433,58.13069 132.706519,58.1404081 132.493606,58.1505678 C131.931726,60.5624097 131.042967,62.8934151 129.805242,65.0530296 C129.769461,64.2883962 129.708503,63.5242046 129.626341,62.7622215 C129.469527,61.3129078 129.228343,59.8649192 128.905881,58.4310659 C127.203898,58.6143836 125.455092,58.87147 123.684641,59.197908 C123.752667,59.1581523 123.818926,59.1188384 123.889161,59.0795245 C124.940477,58.488049 126.2184,57.8996656 127.7459,57.3987446 C129.2734,56.8978236 131.050035,56.4839233 133.1001,56.2409722 C136.649837,55.8204459 140.463286,55.6671658 143.897731,56.8280304 C143.990936,56.8593932 144.079723,56.8907559 144.16321,56.921677 C144.311189,56.9760097 144.45431,57.0321093 144.592129,57.0930679 C144.729507,57.1540266 144.862026,57.2198442 144.989244,57.293613 C145.009122,57.305098 145.028116,57.3183499 145.047552,57.3302766 C144.354037,60.0151071 143.360588,62.6182178 142.103426,65.0808585 C142.004479,62.9124095 141.837505,60.6838853 141.543314,58.4500603 Z M139.311256,79.6698515 C139.559066,81.1492029 139.379724,82.7191088 138.831538,84.1114395 C137.799216,86.7335445 135.770354,88.5313827 133.37839,89.8358092 C130.986867,91.1397941 128.231802,91.9503673 125.747516,92.597059 C124.470477,92.9292394 123.160308,93.2313822 121.873992,93.6028765 C120.588118,93.9748126 119.326098,94.4165419 118.146681,95.0287787 C117.004369,95.6224628 116.01357,96.4365699 115.229059,97.415442 C114.444548,98.3943141 113.86544,99.536626 113.545187,100.788045 C112.713852,99.5282331 112.382997,98.0479983 112.442189,96.5673218 C112.50138,95.0866452 112.950177,93.6055269 113.676822,92.3421812 C115.09654,89.8760066 117.287517,88.1983188 119.767385,86.9711948 C120.557639,86.5798227 121.37793,86.2352739 122.211032,85.9251799 C122.196013,85.923413 122.180994,85.9220878 122.166417,85.9203209 C116.862574,85.384945 110.45529,85.1764488 107.741306,89.375969 C106.634774,86.8360257 108.119868,84.2254056 110.231334,82.5039866 C111.859989,81.1757067 113.880901,80.3320037 116.074529,79.8200395 C119.451991,81.8104716 123.189462,82.7623982 127.625308,82.4121069 C127.785214,82.3997385 127.948653,82.384278 128.113418,82.3670505 C125.258964,81.8674547 122.539678,80.9256879 120.16185,79.5117125 C118.875534,78.7461956 117.693466,77.8397671 116.680581,76.8008198 C115.666812,75.7654064 114.830177,74.5877561 114.251512,73.3376623 C113.668871,72.0906605 113.351709,70.7791663 113.294284,69.5299559 C113.233768,68.2789785 113.42592,67.0977944 113.762518,66.0420615 C113.863232,67.1503602 114.106183,68.248941 114.524501,69.271986 C114.940609,70.2963562 115.528551,71.2394482 116.257404,72.070341 C116.985816,72.9030007 117.853814,73.6256698 118.824735,74.2392317 C119.793447,74.8545606 120.85934,75.3669666 121.990167,75.7861677 C122.527752,75.9853876 123.080355,76.1629628 123.644885,76.3211018 C125.21965,74.0325024 126.543071,71.6299369 127.767103,69.1063375 C128.041417,71.3096831 127.816576,73.4445608 127.291802,75.5215718 C127.169885,76.0017316 127.003353,76.4924928 126.804575,76.9854627 C127.650486,77.1091469 128.5123,77.197051 129.38604,77.2478499 C131.720138,77.3763931 134.134189,77.2474082 136.553982,76.860895 C135.84103,76.4991188 135.154141,76.0975868 134.490664,75.6501151 C135.008812,75.2410738 135.497365,74.8143633 135.962948,74.3403877 C137.534621,72.7413277 138.799733,70.86442 139.86916,69.0988281 C139.813944,71.1868824 139.30463,73.5863559 138.007271,75.9323801 C137.932177,76.0640154 137.852666,76.1947673 137.771387,76.3250774 C138.60228,77.2752371 139.104968,78.4414024 139.311256,79.6698515 Z M101.520874,63.9756519 C101.520874,63.9756519 100.575573,62.9517234 97.5749062,62.3363945 L97.5824156,62.2025505 C97.7277446,59.6422876 97.7171431,58.2115265 97.5841826,56.3266676 C99.6823966,54.8989986 100.830451,53.8304555 102.662302,51.5904463 C102.970629,54.7872411 103.127885,59.1285565 101.520874,63.9756519 Z M97.4768423,71.9665346 C97.3893799,70.050313 97.2422841,68.0815256 96.987848,66.1074374 C96.8288255,66.073866 96.6689195,66.0407363 96.5090135,66.0111404 C93.6616265,65.4845991 91.0633749,65.7615634 88.8039296,65.8640446 C88.2928488,67.9865538 87.5003865,70.0379445 86.4093152,71.9417977 C86.3770689,71.2487245 86.3222945,70.5565347 86.2476423,69.8665536 C86.1115897,68.611159 85.9053021,67.3570895 85.6323134,66.1145051 C85.5156969,66.1277569 85.3999638,66.1392419 85.2829055,66.1529355 L85.2537514,66.1564693 C83.4682816,66.3596648 81.6227367,66.6503227 79.7515715,67.0200501 C82.7760918,65.2973059 87.7888357,63.5847215 95.4108745,64.1161218 L96.4480548,64.1885654 C96.4480548,64.1920992 96.4480548,64.1951913 96.4480548,64.1987252 C96.7625661,64.2477571 97.0541074,64.3007646 97.3231206,64.3564225 C98.1306017,64.5233962 98.9195302,64.7500033 99.6682613,65.0998529 C99.8131485,65.1674375 99.9341823,65.2438567 100.044173,65.3269018 C99.4217764,67.6243357 98.555987,69.8524182 97.4768423,71.9665346 Z M94.1806584,89.1807247 C94.1395776,89.6074352 94.0494648,90.0178017 93.9346152,90.3650009 C93.6068521,91.3593335 92.9985909,92.2463259 92.2644368,92.9928484 C87.7764673,97.5563536 80.4671729,96.2510436 75.6739685,100.160789 C74.899617,100.792021 74.2326058,101.56063 73.7237337,102.51344 C73.2007262,101.427227 72.8703127,100.30921 72.7187996,99.2013535 C72.5668447,98.0934964 72.5933484,96.9957992 72.7824086,95.9489008 C72.9719104,94.9024441 73.3239687,93.907228 73.8244479,93.0056586 C74.191525,92.3435064 74.6389967,91.732153 75.1597956,91.1870591 C74.7428031,91.2325572 74.325369,91.2855647 73.9101434,91.3513824 C72.9886961,91.4967113 72.0756417,91.6959312 71.1882076,91.9653861 C70.3003317,92.2352827 69.4385179,92.5754142 68.6191101,93.0025664 C67.8005857,93.4306021 67.0244674,93.9456585 66.3084242,94.5658464 C66.1948998,94.1227919 66.1388002,93.6726698 66.1339412,93.2238728 C66.1295239,92.7750759 66.1759054,92.3267206 66.2669017,91.8867583 C66.3583396,91.4467959 66.4935088,91.0147847 66.6671084,90.5986757 C66.8402663,90.1825667 67.0514129,89.7814765 67.2930388,89.403798 C67.5576346,89.0084503 67.8553602,88.6316552 68.1791477,88.2738545 C68.503377,87.9160538 68.8532266,87.5768057 69.2225123,87.2569937 C69.5935649,86.9362982 69.9893543,86.6310633 70.4028129,86.3426141 C70.4213656,86.3298039 70.4403599,86.3169938 70.4593543,86.3037419 C72.107888,87.6894466 73.7020889,88.9068525 75.3771264,89.8278581 C76.648865,90.5266738 77.9912803,91.0686757 79.3292783,91.3027922 C80.6641841,91.5448598 81.9677273,91.4467959 83.0490805,91.0903204 C81.9120694,90.9467584 80.8011202,90.5858655 79.7528966,90.0275197 C78.7020227,89.4713826 77.7019476,88.7310443 76.6983387,87.8842493 C74.6191189,86.0705088 72.5853973,82.5675956 68.7719484,78.5695039 C69.0789503,78.5072201 69.4005292,78.4709983 69.7349183,78.470555 C71.3993542,78.4692313 73.0288935,79.3164681 74.2864968,80.4075394 C76.0644571,81.9509415 77.6021168,83.764682 79.5130376,85.0978209 C81.1028213,82.9965148 82.4235919,80.8704717 83.6189113,78.9573422 C83.5862233,80.8271823 83.226214,82.9616181 82.3652836,85.1495033 C82.2071445,85.5505935 82.0322197,85.9530088 81.8400675,86.3545408 C83.9974733,87.2698038 86.3700013,87.6996064 88.7133751,87.2357907 C89.0482059,87.1695313 89.3675762,87.0842775 89.6582341,86.9769373 C89.9069276,86.8850576 90.1980272,86.7640238 90.5094464,86.6443152 C90.5593618,86.6248791 90.6114858,86.6058847 90.6627264,86.5868904 C89.9904145,86.3236197 89.3366551,86.0453303 88.6992398,85.7396536 C89.2059033,85.2643529 89.6834126,84.7811011 90.1410442,84.2779714 C91.6720779,82.6007253 92.9221717,80.8055375 94.0048502,79.1221072 C93.8718897,81.1134228 93.3091266,83.4015805 92.0568241,85.639381 C91.9397658,85.8500859 91.8151981,86.0599073 91.6844463,86.2688453 C91.9441831,86.210537 92.1995026,86.1751987 92.4389199,86.179616 C92.7410627,86.1849167 93.018027,86.2520596 93.2477262,86.4110821 C94.088337,86.9928396 94.2804893,88.1378019 94.1806584,89.1807247 Z M63.5524752,62.5577009 C57.6902859,60.465671 53.291104,52.8290552 54.0097976,46.4456253 C52.124497,48.8623262 51.1681531,52.0374763 51.6226925,55.1631527 C51.9871192,57.667316 53.1303146,60.1303985 54.4515268,62.5616765 C55.7758312,64.9991386 57.3351356,67.463988 58.6347031,70.2420235 C58.9496561,70.9147772 59.2619587,71.6352376 59.3763666,72.3954537 C59.4907745,73.1556698 59.3719493,73.9711021 58.9364042,74.3682167 C57.0117898,71.7112151 54.9193181,69.9787528 52.4822977,68.4764315 C50.184422,67.0598057 47.8348639,65.8256141 45.8347137,63.9195523 C42.7302403,60.9316954 41.2561897,57.4963668 41.3542536,53.5565833 C35.0874403,55.7983594 29.1461815,58.706705 24.4311631,63.6500974 C24.4333718,63.6452384 24.4351387,63.6399376 24.4369056,63.6350786 C24.9064638,62.4207648 25.4714356,61.1940826 26.1088509,60.0703233 C29.8361626,53.498275 35.5477222,48.5517905 41.9682573,44.77368 C46.3519787,42.1948645 51.0347508,40.3024962 55.9299947,39.1120358 C54.4736133,38.3549118 53.0993935,37.6803912 51.7843654,37.1370642 C49.1905311,36.0667541 44.9918943,34.998211 42.5857949,37.0301657 C41.9784171,37.5425717 41.5662837,38.2484551 41.3352593,39.1089437 C40.994686,38.4494419 40.7773552,37.8235115 40.7013778,37.2170172 C40.625842,36.6105229 40.6885676,36.0186056 40.905015,35.4218294 C41.0808232,34.9341603 41.3754566,34.4827129 41.7412085,34.0935494 C42.1069603,33.7043859 42.5433889,33.377948 43.0010204,33.1385307 C46.8754279,31.1145272 51.8161699,32.044809 55.6530305,33.6951096 C56.6160003,34.10901 57.5586506,34.5750343 58.4845152,35.0794892 C64.5578511,32.5373372 72.0080571,32.6817826 78.156487,35.4015098 C79.6406974,36.0579195 81.0471634,36.8614251 82.363075,37.7894983 C81.6602837,36.1740943 80.5917405,34.8016415 79.275829,33.6739066 C82.1497197,33.5316698 85.0399544,33.9866509 87.8692305,35.4545173 C90.7621155,36.9559552 93.443854,38.8425809 96.3491075,40.3016128 C95.4594647,41.2530976 94.6979234,42.2006069 94.0795024,43.1335392 C99.1267012,46.6815088 102.182143,50.6235009 102.584116,51.1522508 C96.872115,52.3846755 92.3916549,52.2936793 86.8983095,51.3810666 C86.892567,51.3801831 86.8863828,51.378858 86.8801986,51.3784162 C89.7253769,53.1020439 92.6081022,54.7280494 95.4837598,56.5011507 C95.5243989,57.0086976 95.5509027,57.4866487 95.5668049,57.9690171 C95.6047936,59.1100038 95.5831489,60.273077 95.4974534,61.9688758 C92.1818334,61.7877667 88.6603676,61.9600412 85.2811386,62.7215825 C81.9014679,63.4831237 78.7784418,64.853368 76.1338086,67.0412531 C75.6465812,66.4895332 75.1779065,65.907334 74.7317599,65.2999563 C75.2092692,64.8096368 75.7556884,64.3555391 76.3449552,63.9381049 C77.6303874,63.0281426 79.1137144,62.2895712 80.5117875,61.7091389 C81.909419,61.1287067 83.2217967,60.7064135 84.1816744,60.4272406 C85.1415521,60.1480677 85.7502551,60.0115733 85.7449543,60.0115733 C84.6057345,60.091968 83.482417,60.2262537 82.3763268,60.4161973 C81.2706785,60.6061409 80.1818158,60.8513007 79.1168065,61.1534435 C78.0517972,61.4555863 77.0101995,61.8147122 76.0034985,62.2325881 C75.1368256,62.5925975 74.2993069,62.9985467 73.4975683,63.4469019 C73.2687525,63.0670147 73.0500965,62.6800599 72.842042,62.2860374 C73.3500307,61.7882085 73.9317882,61.3310187 74.5555099,60.914468 C75.8506602,60.049562 77.3225021,59.3556053 78.6962802,58.8136035 C80.0700583,58.2716017 81.3462142,57.8815547 82.2760543,57.6257935 C83.2063362,57.3691487 83.7925109,57.2467897 83.7876519,57.2467897 C82.6771445,57.2962634 81.5790055,57.3991863 80.4932349,57.5573254 C79.4079061,57.7150228 78.3353874,57.9274946 77.2796544,58.196066 C76.2239214,58.4646374 75.1854159,58.7888667 74.1738558,59.1705208 C73.3880194,59.4664794 72.6194105,59.7982181 71.8742132,60.1639699 C71.7200497,59.7584624 71.5817884,59.3485377 71.4607546,58.9341956 C71.8998335,58.5613761 72.3795515,58.2150603 72.8840063,57.8943649 C74.1888746,57.0639138 75.6540906,56.404412 77.0115247,55.8933312 C78.3694005,55.3818087 79.6203779,55.0182655 80.5285733,54.7810569 C81.4372104,54.54429 82.0061577,54.4334159 82.0012987,54.4334159 C80.9181785,54.4541772 79.8425677,54.5292712 78.7740246,54.6591396 C77.7054814,54.789008 76.644006,54.9740926 75.5948989,55.214835 C74.5457919,55.4555775 73.509495,55.7519778 72.4935176,56.1049195 C71.9846455,56.2816113 71.4806324,56.47288 70.9836869,56.6778424 C70.9399557,56.3443368 70.9072678,56.009506 70.8882734,55.67335 C72.3852939,53.8202957 74.2997487,52.3559631 76.5781883,51.4610196 C77.9479908,50.9234351 79.4383854,50.6018561 80.9415901,50.5192528 C72.5571266,49.8173449 64.1496932,52.5207281 63.5524752,62.5577009 Z M43.7409169,19.7232124 C49.7842152,20.1393214 55.8124948,19.3592275 61.7219491,18.1312201 C65.0450785,17.4403555 68.3368451,16.6125548 71.6158015,15.7352805 C70.950999,15.3991245 70.295031,15.0413238 69.6514314,14.6609949 C67.5920895,13.4444724 65.9523904,11.459341 64.4624376,9.59391827 C65.2959807,9.99147462 66.1807645,10.4067001 66.9988471,10.5979689 C70.7332264,11.470826 74.4972016,11.5490121 78.3004908,11.113467 C82.2075863,10.6659952 86.2034693,9.78076976 90.1149821,9.16279049 C96.4895774,8.155206 102.988299,7.85483009 109.072678,9.71009307 C110.356343,10.1014652 111.633824,10.5953186 112.879942,11.1845854 C113.406484,11.4111925 113.927283,11.6585609 114.440572,11.9302244 C115.610271,12.5495289 116.697367,13.2788239 117.705393,14.0973483 C119.407376,15.3827805 120.949011,16.8745003 122.234885,18.5508629 C122.200872,18.0238799 122.122244,17.4986638 122.00121,16.9796319 C121.71762,15.7556 121.206539,14.562931 120.537761,13.4422638 C121.737498,13.5297262 122.950487,13.7536829 124.172751,14.1119254 C127.444199,15.0709196 130.471369,17.7345472 131.812018,20.9856747 C132.009471,21.4653927 132.164518,21.9490863 132.282459,22.435872 C129.688625,21.3668871 126.885853,20.851389 123.923616,20.8999792 C123.890486,20.9008627 123.857799,20.9021879 123.825111,20.9030713 C124.322056,21.7317555 124.770853,22.5825261 125.161783,23.4531745 C124.966539,23.3308155 124.767761,23.2115486 124.563682,23.0975824 C124.046859,22.8082497 123.502648,22.5436539 122.937676,22.3042366 C121.210515,21.5736164 119.401192,21.0744623 117.574199,20.7409567 C115.679181,20.3950827 113.757217,20.2197161 111.83702,20.1985131 C109.899595,20.1768684 107.962612,20.3111541 106.050366,20.6013702 C104.491062,20.8376954 102.949426,21.1800356 101.436504,21.6222066 C100.531842,21.107592 99.6121617,20.618156 98.6787877,20.1614079 C92.6911473,17.232301 86.5824731,16.7631845 81.9169284,18.8777426 C81.0829435,19.257188 80.284297,19.8000733 79.6066842,20.4480902 C78.8460264,21.17606 78.2686863,22.0047442 77.8910077,22.9111727 C77.4294006,24.0177045 77.2544758,25.1759187 77.3715341,26.3544524 C77.3790435,26.4339637 77.3909702,26.5139167 77.4011299,26.5938697 C73.7246171,27.1142268 69.9990724,27.275458 66.2898716,27.1111347 C61.7996934,26.9127982 57.2843367,26.2890765 52.9302112,25.1662006 C48.7885574,24.0976575 44.7705879,22.2326765 41.453201,19.5107406 C42.2143005,19.59997 42.9767253,19.6702049 43.7409169,19.7232124 Z M141.065804,31.341576 C140.143915,32.3275158 139.354545,33.30948 138.712713,34.2764253 C140.212825,35.1762279 141.594996,36.2717165 142.80666,37.3769232 C145.487073,39.8647425 147.261941,42.2447799 147.553924,42.626434 C141.627684,43.9229094 137.131322,43.8628342 131.459959,42.8689433 C131.460843,42.8693851 131.461726,42.8698268 131.463052,42.8707103 C134.290561,44.6106819 137.114978,46.2468472 139.903615,47.988144 C139.98931,48.5615086 140.052919,49.0973262 140.097092,49.6455123 C140.173953,50.861593 140.185438,52.0803241 140.136848,53.8613765 C136.680316,53.6705495 133.02589,53.8490081 129.555223,54.6494216 C126.081905,55.4502767 122.792789,56.8748537 120.042141,59.1506429 C119.512949,58.551658 119.012912,57.9204269 118.545562,57.2600416 C119.014237,56.8527672 119.525759,56.4693462 120.064227,56.1111037 C121.431821,55.2024666 122.973898,54.4524103 124.424979,53.855634 C125.876943,53.2588578 127.238353,52.8149198 128.237103,52.519403 C129.236294,52.2243278 129.871501,52.0772319 129.866642,52.0776737 C128.704452,52.1580684 127.552864,52.294121 126.416736,52.4858315 C125.280167,52.677542 124.158616,52.9249104 123.057385,53.2279367 C121.956154,53.530963 120.874359,53.8896472 119.821276,54.3026641 C118.980666,54.6317524 118.159049,54.9975042 117.359519,55.3963858 C117.124519,54.9855775 116.901888,54.5659347 116.691624,54.1387825 C117.208006,53.6855683 117.781371,53.265042 118.386981,52.8767619 C119.762968,51.9950703 121.305928,51.2768185 122.751267,50.7105215 C124.197047,50.1442246 125.546088,49.7298825 126.535561,49.4560104 C127.524593,49.18258 128.153174,49.0496195 128.147873,49.0500612 C126.973757,49.1021852 125.815101,49.2099672 124.672789,49.3742905 C123.530477,49.5386138 122.404509,49.7590367 121.297536,50.0355592 C120.190562,50.3120817 119.103025,50.6447039 118.038457,51.0321005 C117.264989,51.3139237 116.504773,51.6257846 115.759576,51.9654744 C115.601437,51.527279 115.458316,51.0837828 115.332423,50.6354276 C115.761784,50.2939708 116.221624,49.9728336 116.701342,49.6733412 C118.076446,48.8132943 119.607479,48.121988 121.034265,47.5821948 C122.460609,47.0419599 123.784471,46.6532381 124.754067,46.3992438 C125.724105,46.1448077 126.339434,46.0246573 126.334575,46.0246573 C125.163992,46.0498359 124.013287,46.1324393 122.87981,46.271584 C121.746333,46.4111705 120.630524,46.60774 119.531502,46.8608509 C118.432479,47.1144035 117.350243,47.4244974 116.287,47.790691 C115.805074,47.9563395 115.327564,48.1356816 114.854031,48.3243 C114.808974,47.9850519 114.773194,47.6440369 114.750666,47.3016967 C116.311737,45.3368848 118.308354,43.7806726 120.64731,42.8397892 C121.638551,42.4409077 122.682799,42.1595261 123.743391,41.9969697 C117.702301,42.092825 112.295535,43.7241312 108.13577,48.4524015 C105.628956,45.8400145 102.886701,43.6940936 100.160789,41.7610863 C101.119784,40.7044699 102.077011,39.6465282 103.032472,38.5872614 C101.630423,37.9427784 100.207171,37.3062465 98.8258836,36.6551375 C95.6458745,35.1554666 92.543168,33.1893296 89.3004333,31.8561906 C90.1861005,31.4489162 91.0819275,31.0747715 91.9799632,30.7364069 C94.0114761,29.9717735 96.1008556,29.4924972 98.2268987,29.2362942 C96.3853293,28.1823282 94.5548031,27.1950632 92.7158841,26.358428 C89.7691081,25.02043 85.4993529,23.7928643 82.741637,25.8645746 C82.0839021,26.3593114 81.6253871,27.0753546 81.3581408,27.9429109 C81.0158007,27.268832 80.8050958,26.6327419 80.7445789,26.0196216 C80.6836202,25.4069431 80.7706409,24.811492 81.0193345,24.2155992 C81.2220882,23.7292553 81.5498514,23.2804583 81.9504998,22.8970373 C82.35159,22.5131746 82.8282159,22.1871784 83.3198606,21.9636633 C87.5688546,20.0377237 92.836918,21.076671 97.1897183,23.2062478 C98.4839851,23.8392459 99.7561654,24.5442458 101.010677,25.3031367 C101.144962,25.2576386 101.278806,25.2116988 101.414417,25.1675258 C108.016945,23.0207215 115.278091,22.984058 121.989284,25.3539356 C124.225317,26.1441893 126.234302,27.1915294 127.987967,28.4133526 C128.543663,28.8007492 129.068437,29.2053732 129.565824,29.6241326 C129.609555,29.6387096 129.652845,29.6519615 129.696576,29.6665386 C129.6312,29.2897435 129.541971,28.9231082 129.428888,28.5679578 C129.303437,28.1765857 129.150599,27.7989072 128.969931,27.435364 C128.789706,27.0727042 128.582535,26.7241798 128.350627,26.3906742 C128.041417,25.9462946 127.6898,25.5284187 127.301078,25.1366048 C127.107159,24.9409187 126.903964,24.7523003 126.691492,24.5698661 C128.555148,24.8079582 130.413061,25.3490766 132.246238,26.3005614 C135.255739,27.8620744 138.044376,29.8237942 141.065804,31.341576 Z M147.640945,43.1900805 C147.791133,44.7644037 147.898031,46.650146 147.797317,48.6529466 C147.686443,50.8704275 147.314507,53.3392525 146.444742,55.962241 C146.444742,55.962241 146.169986,55.6658406 145.451293,55.2916959 C144.810344,54.9581903 143.815127,54.5628426 142.347703,54.2615832 L142.349028,54.2412637 C142.356537,54.0928427 142.364047,53.947072 142.370673,53.8048352 C142.379949,53.6166585 142.3879,53.4328991 142.395851,53.2526736 C142.404686,53.034901 142.411754,52.8171285 142.418821,52.599356 C142.419263,52.5971473 142.419263,52.5944969 142.419263,52.5922883 C142.469178,51.085108 142.476246,49.575719 142.465203,48.0667718 C144.562533,46.5405971 145.730024,45.4146292 147.631668,43.0827403 C147.634761,43.1185204 147.638294,43.1538587 147.640945,43.1900805 Z M142.5054,74.969852 C143.049169,74.2471829 143.572618,73.5134705 144.07133,72.7682732 C155.32085,55.962241 152.305606,40.8175526 152.305606,40.8175526 C152.305606,40.8175526 149.619008,36.863192 145.838689,33.3836905 L149.087166,29.9081645 L143.25634,26.9794993 C141.848549,26.2722908 140.456218,25.4325634 138.974216,24.5380616 C138.470645,24.2345936 137.876077,23.875026 137.261632,23.5132497 C137.126463,22.0171126 136.770429,20.5616146 136.199273,19.1763516 C134.322807,14.6269817 130.225768,10.9416343 125.508099,9.5581382 C122.415111,8.65126798 119.390149,8.42024357 116.458833,8.86020593 C111.334773,4.80866496 104.4089,3.67562935 97.9998498,3.63719891 C85.5086292,3.56254666 72.3353785,8.01473609 60.0884342,4.05728345 C58.9381712,3.68578913 57.8095528,3.21976473 56.7034627,2.70249975 C55.5978143,2.18523476 54.5146941,1.61672917 53.4563108,1.03983073 C53.1466585,0.871090144 52.8383315,0.699699182 52.5313296,0.526541304 C52.2238861,0.352941696 51.9182094,0.177575171 51.6129745,0 C51.7861324,1.39365588 52.0838579,2.77008433 52.5043842,4.10808232 C53.3927017,6.93205762 54.8786791,9.50203858 56.778115,11.731888 C53.7434348,12.2438522 50.7003618,12.701042 47.6382944,13.0000928 C44.422947,13.3141623 41.1532668,13.4312205 37.9463122,12.9603371 C34.6399685,12.4748766 31.4997151,11.3254971 28.6218488,9.63146526 C27.9168489,9.21623974 27.2290764,8.77230181 26.5580896,8.3045105 C26.8425633,11.7323297 28.074988,15.0395569 30.0146212,17.8732502 C30.6635216,18.8207595 31.3901662,19.7095188 32.1764443,20.5417368 C31.5191512,20.596953 30.8627415,20.6627706 30.2076569,20.7413984 C25.3194807,21.3258063 20.4931466,22.5109659 16.1310699,24.5906274 C13.0407319,26.0642363 10.1226682,28.0166797 7.62733951,30.5429295 C5.1320108,33.0691792 3.05941701,36.1802786 1.66708631,39.9181917 C1.38084573,40.6859172 1.11359952,41.4770544 0.866672851,42.2845355 C0.619304453,43.0920166 0.393139061,43.9158417 0.189060133,44.7480597 C9.03778111,38.2621487 22.0877893,37.1498743 31.0787471,43.724573 C15.8342278,48.2575988 2.35618399,56.3518462 0,70.3714502 C22.9831745,64.1209808 38.8284456,87.5229147 60.5429736,93.9116453 C60.5650601,93.9182712 60.5871466,93.9240137 60.609233,93.9306397 C60.188265,97.1406864 60.8146371,100.193036 62.4508024,102.83546 L63.6364038,104.750357 L64.7738567,102.806748 C65.514195,101.541193 66.4184148,100.494295 67.5099279,99.6457331 C67.6155012,103.056325 69.1765724,106.459849 72.0579726,109.458307 L73.2722863,110.722537 L74.1906415,109.229492 C75.9818538,106.316729 80.6518157,104.252086 85.1667307,102.25547 C89.0013826,100.560113 92.9663446,98.8068892 95.671053,96.3804703 C95.9064947,96.1693237 96.1282428,95.9542015 96.3398312,95.736429 C100.128101,95.1250756 103.885892,94.2844648 107.578749,93.2344743 C106.794238,100.600752 109.165883,105.51764 112.725337,108.408759 L114.178626,109.589943 L114.846963,107.840695 C116.143438,104.446005 117.716878,102.194953 119.949378,100.541118 C122.048475,98.9853478 124.653353,97.9795303 128.44339,96.80188 C131.744433,95.7770681 136.524386,94.0878953 139.9151,91.0253862 C143.617674,87.6806121 144.963182,83.4077647 143.914075,78.4427276 C143.651246,77.1776149 143.1543,76.0286771 142.5054,74.969852 L142.5054,74.969852 Z" id="Fill-26" fill="#006F4E"></path>
            </g>
            <path d="M84.0487139,76.6983387 C81.6055092,74.3324366 77.6661675,73.1494856 72.2192037,73.1494856 L47.0057381,73.1494856 C47.0044129,73.1494856 47.0035294,73.1494856 47.0022042,73.1494856 L16.3024609,73.1494856 C18.1533066,74.1575118 19.8177425,75.3201433 21.0726954,76.823348 C24.8804018,81.3855281 25.9299506,86.838676 24.2275259,93.1911849 L22.8064828,98.4954701 L22.8303362,98.4954701 L9.10669087,149.713097 C8.22544096,153.000446 8.9697548,155.827072 11.3511174,158.193416 C13.7346886,160.550041 17.6983254,161.733434 23.2694151,161.733434 L33.5312281,161.733434 C35.9629477,161.733434 38.3478441,161.35443 40.6978439,160.595539 C43.0478437,159.836649 45.0590371,158.906808 46.7539524,157.81397 L48.3092812,161.733434 L65.8671367,161.733434 L79.1932256,112.000018 L49.1154371,112.000018 L47.0273828,125.626924 L53.8026265,125.626924 L47.9921195,147.310973 C47.6316685,148.656922 47.0304749,149.604873 46.1876554,150.15571 C45.3452777,150.706546 44.1685109,150.977768 42.6670731,150.977768 L34.84979,150.977768 C33.3359837,150.977768 32.3041041,150.706546 31.7568015,150.15571 C31.2094989,149.604873 31.1162941,148.656922 31.4767452,147.310973 L47.1201459,88.9307059 L38.7193385,83.882182 L60.6388289,83.9051519 C62.1402667,83.9051519 63.1694959,84.1852083 63.7194489,84.7272101 C64.2667515,85.2776048 64.3599564,86.2259975 63.9968549,87.5807812 L61.3226258,97.5616544 L81.5666371,103.141137 L86.3823697,85.1693811 C87.2631779,81.8824735 86.4817588,79.0554061 84.0487139,76.6983387" id="Fill-28" fill="#FFFFFE"></path>
            <path d="M34.84979,150.977768 C33.3359837,150.977768 32.3041041,150.706546 31.7568015,150.15571 C31.2094989,149.604873 31.1162941,148.656922 31.4767452,147.310973 L47.1201459,88.9307059 L41.9726746,85.8372758 L25.5010314,147.310973 C25.1401386,148.656922 25.2333435,149.604873 25.7810878,150.15571 C26.3279487,150.706546 27.3598283,150.977768 28.8740762,150.977768 L34.84979,150.977768" id="Fill-29" fill="#D4D6D2"></path>
            <polyline id="Fill-30" fill="#D4D6D2" points="61.7537536 155.369882 65.8671367 161.733434 79.1932256 112.000018 73.2170702 112.000018 61.7537536 155.369882"></polyline>
            <path d="M84.0487139,76.6983387 C81.6055092,74.3324366 77.6661675,73.1494856 72.2192037,73.1494856 L66.2430483,73.1494856 C71.6904538,73.1494856 75.6293538,74.3324366 78.0725585,76.6983387 C80.5060451,79.0554061 81.2870224,81.8824735 80.4062142,85.1693811 L77.441769,96.8014383 L81.5666371,103.141137 L86.3823697,85.1693811 C87.2631779,81.8824735 86.4817588,79.0554061 84.0487139,76.6983387" id="Fill-31" fill="#D4D6D2"></path>
            <polyline id="Fill-32" fill="#D4D6D2" points="53.8026265 125.626924 47.0273828 125.626924 47.9351365 119.702451 59.064064 119.702451 53.8026265 125.626924"></polyline>
            <path d="M50.1172791,152.241114 C48.5734353,153.151518 42.7205223,155.940596 40.6814999,156.598773 C38.3315002,157.357664 35.9470455,157.736668 33.5148841,157.736668 L23.2530711,157.736668 C17.6819814,157.736668 13.7183446,156.554158 11.3347734,154.196649 C10.1284107,152.998238 9.34610814,151.680117 8.97858938,150.245381 C8.315112,153.304356 9.08416268,155.95694 11.3347734,158.193416 C13.7183446,160.550041 17.6819814,161.733434 23.2530711,161.733434 L33.5148841,161.733434 C35.9470455,161.733434 38.3315002,161.353989 40.6814999,160.595539 C42.7205223,159.937363 45.1328059,158.924036 46.7539524,157.81397 L50.1172791,152.241114" id="Fill-33" fill="#D4D6D2"></path>
        </g>
    </g>
</svg>